<svg xmlns="http://www.w3.org/2000/svg" width="116" height="116" viewBox="0 0 116 116">
  <g id="グループ_73" data-name="グループ 73" transform="translate(-1007 -3885)">
    <g id="楕円形_2" data-name="楕円形 2" transform="translate(1007 3885)" fill="#fff" stroke="#707070" stroke-width="1">
      <circle cx="58" cy="58" r="58" stroke="none"/>
      <circle cx="58" cy="58" r="57.5" fill="none"/>
    </g>
    <g id="メールの無料アイコン" transform="translate(1037.257 3924.558)">
      <path id="パス_56" data-name="パス 56" d="M53.814,68.828H1.673A1.675,1.675,0,0,0,0,70.5V73.8L27.743,92.387,55.487,73.795V70.5A1.675,1.675,0,0,0,53.814,68.828Z" transform="translate(0 -68.828)" fill="#4b4b4b"/>
      <path id="パス_57" data-name="パス 57" d="M0,178v22.042a6.692,6.692,0,0,0,6.7,6.694h42.1a6.692,6.692,0,0,0,6.7-6.694V178L27.743,196.593Z" transform="translate(0 -166.169)" fill="#4b4b4b"/>
    </g>
  </g>
</svg>
