<svg xmlns="http://www.w3.org/2000/svg" width="116" height="116" viewBox="0 0 116 116">
  <g id="グループ_72" data-name="グループ 72" transform="translate(-788 -3885)">
    <g id="楕円形_1" data-name="楕円形 1" transform="translate(788 3885)" fill="#fff" stroke="#707070" stroke-width="1">
      <circle cx="58" cy="58" r="58" stroke="none"/>
      <circle cx="58" cy="58" r="57.5" fill="none"/>
    </g>
    <g id="グループ_70" data-name="グループ 70" transform="translate(818.526 3921.067)">
      <g id="グループ_69" data-name="グループ 69" transform="translate(0)">
        <path id="パス_55" data-name="パス 55" d="M65.394,18.27a16.867,16.867,0,0,1-6.312,1.894,11.724,11.724,0,0,0,4.839-6.522,24.34,24.34,0,0,1-7.154,2.946,10.74,10.74,0,0,0-8-3.787c-6.1,0-11.151,5.26-11.151,11.993a12,12,0,0,0,.21,2.735A30.8,30.8,0,0,1,14.9,15.114a11.417,11.417,0,0,0-1.473,6.1A11.968,11.968,0,0,0,18.264,31.1a10.13,10.13,0,0,1-5.05-1.473v.21a12.056,12.056,0,0,0,8.837,11.783,12.418,12.418,0,0,1-2.946.421,7.158,7.158,0,0,1-2.1-.21c1.473,4.839,5.47,8.206,10.31,8.206a21.486,21.486,0,0,1-13.676,5.05,12.942,12.942,0,0,1-2.735-.21,29.893,29.893,0,0,0,17.043,5.47c20.409,0,31.56-18.095,31.56-33.875V25A25.138,25.138,0,0,0,65.394,18.27Z" transform="translate(-10.9 -12.8)" fill="#454545"/>
      </g>
    </g>
  </g>
</svg>
